<?xml version="1.0" encoding="UTF-8"?>
<svg version="1.1" xmlns="http://www.w3.org/2000/svg" width="32" height="32">
<path d="M0 0 C10.56 0 21.12 0 32 0 C32 10.56 32 21.12 32 32 C21.44 32 10.88 32 0 32 C0 21.44 0 10.88 0 0 Z " fill="#F9F9F9" transform="translate(0,0)"/>
<path d="M0 0 C2.8100346 1.79363911 4.50940468 3.01880935 6 6 C6.45544554 13.05940594 6.45544554 13.05940594 4.921875 16.2265625 C2.06790536 18.86010359 -0.18474598 18.53179378 -4 18.5 C-5.2375 18.5103125 -6.475 18.520625 -7.75 18.53125 C-11 18 -11 18 -12.91015625 16.21484375 C-14.56453132 12.85272668 -14.66828091 9.62165138 -14 6 C-10.32759145 0.24655994 -6.71744997 -0.96515086 0 0 Z " fill="#D2D3D3" transform="translate(20,4)"/>
<path d="M0 0 C1.423125 0.37125 1.423125 0.37125 2.875 0.75 C3.205 1.41 3.535 2.07 3.875 2.75 C2.885 3.74 1.895 4.73 0.875 5.75 C1.865 6.08 2.855 6.41 3.875 6.75 C3.875 7.74 3.875 8.73 3.875 9.75 C2.885 9.75 1.895 9.75 0.875 9.75 C1.865 10.08 2.855 10.41 3.875 10.75 C3.875 12.07 3.875 13.39 3.875 14.75 C0.575 14.75 -2.725 14.75 -6.125 14.75 C-6.125 12.11 -6.125 9.47 -6.125 6.75 C-5.135 6.42 -4.145 6.09 -3.125 5.75 C-4.115 4.43 -5.105 3.11 -6.125 1.75 C-3.125 -0.25 -3.125 -0.25 0 0 Z " fill="#8F9090" transform="translate(17.125,6.25)"/>
<path d="M0 0 C0.66 0.33 1.32 0.66 2 1 C2 1.66 2 2.32 2 3 C2.63474075 4.34882408 3.29848848 5.6846659 4 7 C2.68 7 1.36 7 0 7 C0.20625 7.5775 0.4125 8.155 0.625 8.75 C1.08661261 11.51967567 0.42944945 12.64561267 -1 15 C-3.16345727 12.65625462 -3.96214706 11.25415543 -4.4375 8.0625 C-3.90475283 4.33326978 -2.54808744 2.70734291 0 0 Z " fill="#F8F8F8" transform="translate(11,6)"/>
<path d="M0 0 C1.423125 0.37125 1.423125 0.37125 2.875 0.75 C3.205 1.41 3.535 2.07 3.875 2.75 C2.885 3.74 1.895 4.73 0.875 5.75 C1.535 6.41 2.195 7.07 2.875 7.75 C1.225 9.07 -0.425 10.39 -2.125 11.75 C-2.455 10.76 -2.785 9.77 -3.125 8.75 C-3.785 8.09 -4.445 7.43 -5.125 6.75 C-4.465 6.42 -3.805 6.09 -3.125 5.75 C-4.115 4.43 -5.105 3.11 -6.125 1.75 C-3.125 -0.25 -3.125 -0.25 0 0 Z " fill="#737474" transform="translate(17.125,6.25)"/>
<path d="M0 0 C-0.99 0.495 -0.99 0.495 -2 1 C-2.65213292 3.02463255 -2.65213292 3.02463255 -3 5 C-5.64 5 -8.28 5 -11 5 C-11 3.68 -11 2.36 -11 1 C-7.26562152 0.12132271 -3.83225427 -0.08912219 0 0 Z " fill="#B1B2B2" transform="translate(19,23)"/>
<path d="M0 0 C1.423125 0.37125 1.423125 0.37125 2.875 0.75 C3.205 1.41 3.535 2.07 3.875 2.75 C-1.54038462 3.98076923 -1.54038462 3.98076923 -4.5 2.8125 C-5.03625 2.461875 -5.5725 2.11125 -6.125 1.75 C-3.125 -0.25 -3.125 -0.25 0 0 Z " fill="#898A8A" transform="translate(17.125,6.25)"/>
<path d="M0 0 C5.95703125 -0.29296875 5.95703125 -0.29296875 8 0 C8.99 0.99 9.98 1.98 11 3 C7.7 3 4.4 3 1 3 C0.67 2.01 0.34 1.02 0 0 Z " fill="#C5C5C6" transform="translate(12,4)"/>
<path d="M0 0 C1.65 0 3.3 0 5 0 C5 1.32 5 2.64 5 4 C3.35 4 1.7 4 0 4 C0 2.68 0 1.36 0 0 Z " fill="#818282" transform="translate(19,24)"/>
<path d="M0 0 C2.31 0 4.62 0 7 0 C7 0.99 7 1.98 7 3 C4.69 3 2.38 3 0 3 C0 2.01 0 1.02 0 0 Z " fill="#787979" transform="translate(8,25)"/>
<path d="M0 0 C0.556875 0.309375 1.11375 0.61875 1.6875 0.9375 C4.12540433 2.05761821 6.36224186 2.56037364 9 3 C9 3.33 9 3.66 9 4 C6.03 4 3.06 4 0 4 C0 2.68 0 1.36 0 0 Z " fill="#6E6F6F" transform="translate(11,17)"/>
<path d="M0 0 C2.62187494 1.04874998 3.79371361 1.64931313 5.25 4.125 C5.4975 4.74375 5.745 5.3625 6 6 C3 6 3 6 1.3125 4.6875 C0 3 0 3 0 0 Z " fill="#A8A9A9" transform="translate(11,13)"/>
</svg>
